<?xml version="1.0" encoding="utf-8"?>
<!-- Generator: Adobe Illustrator 15.0.0, SVG Export Plug-In . SVG Version: 6.00 Build 0)  -->
<!DOCTYPE svg PUBLIC "-//W3C//DTD SVG 1.1//EN" "http://www.w3.org/Graphics/SVG/1.1/DTD/svg11.dtd">
<svg version="1.1" id="Layer_1" xmlns="http://www.w3.org/2000/svg" xmlns:xlink="http://www.w3.org/1999/xlink" x="0px" y="0px"
	 width="170.193px" height="24px" viewBox="0 0 170.193 24" enable-background="new 0 0 170.193 24" xml:space="preserve">
<g>
	<path fill="#FFFFFF" d="M63.974,9.377V20h-3.881V9.377h-3.921V5.997h11.723v3.381H63.974z"/>
	<path fill="#FFFFFF" d="M76.954,15.779h-6.161c0.12,1.16,0.8,1.68,1.78,1.68c0.92,0,1.681-0.2,2.721-0.74l1.38,2.301
		c-1.3,0.76-2.641,1.2-4.28,1.2c-3.161,0-4.901-2.241-4.901-5.462c0-3.62,2.04-5.48,4.801-5.48c2.881,0,4.682,1.9,4.682,5.801
		C76.975,15.379,76.975,15.599,76.954,15.779z M72.193,11.938c-0.82,0-1.28,0.56-1.4,1.6h3.001
		C73.613,12.478,73.253,11.938,72.193,11.938z"/>
	<path fill="#FFFFFF" d="M83.653,20.22c-3.08,0-4.921-1.96-4.921-5.501c0-3.221,1.641-5.441,5.001-5.441
		c1.98,0,3.121,0.92,4.041,2.4l-2.48,1.88c-0.5-0.92-0.841-1.36-1.62-1.36c-0.921,0-1.381,0.92-1.381,2.581
		c0,1.661,0.5,2.521,1.48,2.521c0.68,0,1.16-0.38,1.82-1.36l2.28,1.78C86.654,19.52,85.514,20.22,83.653,20.22z"/>
	<path fill="#FFFFFF" d="M95.934,20v-5.962c0-1.36-0.46-1.72-1.2-1.72c-0.761,0-1.221,0.36-1.221,1.68V20h-3.601V6.857l3.601-1.44
		v4.781c0.66-0.5,1.4-0.92,2.641-0.92c2.301,0,3.401,1.54,3.401,4.301V20H95.934z"/>
	<path fill="#FFFFFF" d="M108.174,20.22c-4.161,0-6.382-3.081-6.382-7.222c0-4.501,2.641-7.222,6.401-7.222
		c3.441,0,4.802,1.48,5.762,4.121l-3.521,1.38c-0.501-1.3-0.98-2.121-2.261-2.121c-1.62,0-2.32,1.62-2.32,3.841
		c0,2.141,0.68,3.841,2.36,3.841c1.22,0,1.74-0.66,2.5-1.98l3.281,1.74C113.055,18.439,111.494,20.22,108.174,20.22z"/>
	<path fill="#FFFFFF" d="M122.853,13.458c-0.46-0.5-0.979-0.88-1.68-0.88c-0.881,0-1.421,0.42-1.421,1.7V20h-3.601V9.497h3.601v0.76
		c0.62-0.6,1.32-0.98,2.241-0.98c0.76,0,1.28,0.18,1.7,0.44L122.853,13.458z"/>
	<path fill="#FFFFFF" d="M131.413,20v-0.701c-0.641,0.5-1.4,0.921-2.62,0.921c-2.301,0-3.401-1.54-3.401-4.302V9.497h3.621v5.962
		c0,1.359,0.46,1.72,1.2,1.72s1.2-0.36,1.2-1.681V9.497h3.621V20H131.413z"/>
	<path fill="#FFFFFF" d="M143.653,20v-5.962c0-1.36-0.46-1.72-1.2-1.72c-0.761,0-1.221,0.36-1.221,1.68V20h-3.601V9.497h3.601v0.7
		c0.66-0.5,1.4-0.92,2.641-0.92c2.301,0,3.401,1.54,3.401,4.301V20H143.653z"/>
	<path fill="#FFFFFF" d="M154.292,20.22c-3.08,0-4.921-1.96-4.921-5.501c0-3.221,1.641-5.441,5.001-5.441
		c1.98,0,3.121,0.92,4.041,2.4l-2.48,1.88c-0.5-0.92-0.841-1.36-1.62-1.36c-0.921,0-1.381,0.92-1.381,2.581
		c0,1.661,0.5,2.521,1.48,2.521c0.68,0,1.16-0.38,1.82-1.36l2.28,1.78C157.293,19.52,156.152,20.22,154.292,20.22z"/>
	<path fill="#FFFFFF" d="M166.572,20v-5.962c0-1.36-0.46-1.72-1.2-1.72c-0.761,0-1.221,0.36-1.221,1.68V20h-3.601V6.857l3.601-1.44
		v4.781c0.66-0.5,1.4-0.92,2.641-0.92c2.301,0,3.401,1.54,3.401,4.301V20H166.572z"/>
</g>
<g>
	<polygon fill="#FFFFFF" points="0,0 0,8 8,8 8,24 16,24 16,8 24,8 24,0 	"/>
	<polygon fill="#FFFFFF" points="32,16 32,8 24,8 24,24 48,24 48,16 	"/>
	<rect x="32" fill="#FFFFFF" width="16" height="8"/>
</g>
</svg>
